# xmcd CD database file
#
# Track frame offsets:
#	150
#	22094
#	37745
#	53811
#	70567
#	85109
#	105012
#	121687
#	145697
#	164866
#	184197
#	210147
#	233622
#	251603
#	268879
#	286939
#	307546
#	325418
#
# Disc length: 4627 seconds
#
# Revision: 0
# Processed by: cddbd v1.4b41PL2 Copyright (c) Steve Scherf et al.
# Submitted via: Feurio! 1.61 - http://www.feurio.com
#
DISCID=e3121112
DTITLE=Various Artist - Real Night
DYEAR=1900
DGENRE=
TTITLE0=Spooks - Karma Hotel
TTITLE1=Mystikal ft. Nivea - Danger (Been So Long)
TTITLE2=Run DMC ft. Jermaine Dupri - Its Over
TTITLE3=Public Announcement - Mamacita
TTITLE4=Jennifer Lopez - Play (Bubbling Remix)
TTITLE5=Jagged Edge - Promise (Remix)
TTITLE6=Lil Bow Wow - Bow Wow (That's My Name)
TTITLE7=Mya - Free (Maxi)
TTITLE8=Lil' Kim ft. Phil Collins - In The Air Tonite
TTITLE9=Dante ft. Pras - Miss California (Rap Remix)
TTITLE10=Shaggy ft. Rayvon - Angel
TTITLE11=Crazy Town - Butterfly (Ultimix)
TTITLE12=R. Kelly ft. Jay-Z - Fiesta (Remix)
TTITLE13=Ray J ft. Lil' Kim - Wait  A Minute
TTITLE14=112 - It's Over Now
TTITLE15=Eric Benet - Love Don t Love Me
TTITLE16=Marvin Gaye and Shaggy - Sexual Healing (Remix)
TTITLE17=Nelly - Ride Wit Me (Maxi)
EXTD=
EXTT0=
EXTT1=
EXTT2=
EXTT3=
EXTT4=
EXTT5=
EXTT6=
EXTT7=
EXTT8=
EXTT9=
EXTT10=
EXTT11=
EXTT12=
EXTT13=
EXTT14=
EXTT15=
EXTT16=
EXTT17=
PLAYORDER=
